<svg width="1885" height="1414" viewBox="0 0 1885 1414" fill="none" xmlns="http://www.w3.org/2000/svg">
<rect width="1885" height="1414" fill="#333333"/>
<path opacity="0.7" fill-rule="evenodd" clip-rule="evenodd" d="M1532 706H1404.92V0H1390.8V706H1334.32V0H1320.2V706H1263.72V0H1249.6V706H1193.12V0H1179V706H473V720.12H1179V776.6H473V790.72H1179V847.2H473V861.32H1179V917.8H473V931.92H1179V1059C1179 1253.96 1337.04 1412 1532 1412C1726.96 1412 1885 1253.96 1885 1059C1885 864.043 1726.96 706 1532 706ZM1249.6 776.6H1193.12V720.12H1249.6V776.6ZM1263.72 776.6H1320.2V720.12H1263.72V776.6ZM1334.32 776.6H1390.8V720.12H1334.32V776.6ZM1404.92 776.6V720.12H1532C1719.16 720.12 1870.88 871.842 1870.88 1059C1870.88 1246.16 1719.16 1397.88 1532 1397.88C1344.84 1397.88 1193.12 1246.16 1193.12 1059V931.92H1249.6V1059C1249.6 1214.97 1376.03 1341.4 1532 1341.4C1687.97 1341.4 1814.4 1214.97 1814.4 1059C1814.4 903.035 1687.97 776.6 1532 776.6H1404.92ZM1249.6 917.8H1193.12V861.32H1249.6V917.8ZM1263.72 931.92V1059C1263.72 1207.17 1383.83 1327.28 1532 1327.28C1680.17 1327.28 1800.28 1207.17 1800.28 1059C1800.28 910.833 1680.17 790.72 1532 790.72H1404.92V847.2H1532C1648.97 847.2 1743.8 942.026 1743.8 1059C1743.8 1175.97 1648.97 1270.8 1532 1270.8C1415.03 1270.8 1320.2 1175.97 1320.2 1059V931.92H1263.72ZM1334.32 847.2H1390.8V790.72H1334.32V847.2ZM1320.2 790.72V847.2H1263.72V790.72H1320.2ZM1320.2 861.32V917.8H1263.72V861.32H1320.2ZM1334.32 1059V931.92H1390.8V1059C1390.8 1136.98 1454.02 1200.2 1532 1200.2C1609.98 1200.2 1673.2 1136.98 1673.2 1059C1673.2 981.017 1609.98 917.8 1532 917.8H1404.92V861.32H1532C1641.18 861.32 1729.68 949.824 1729.68 1059C1729.68 1168.18 1641.18 1256.68 1532 1256.68C1422.82 1256.68 1334.32 1168.18 1334.32 1059ZM1404.92 1059C1404.92 1129.18 1461.82 1186.08 1532 1186.08C1602.18 1186.08 1659.08 1129.18 1659.08 1059C1659.08 988.816 1602.18 931.92 1532 931.92H1404.92V1059ZM1390.8 917.8V861.32H1334.32V917.8H1390.8ZM1249.6 847.2H1193.12V790.72H1249.6V847.2Z" fill="url(#paint0_linear_8_1155)"/>
<path d="M56.08 159V111.896H70.16C74.896 111.896 78.928 112.6 82.256 114.008C85.584 115.416 88.2507 117.293 90.256 119.64C92.304 121.987 93.7973 124.611 94.736 127.512C95.6747 130.413 96.144 133.336 96.144 136.28C96.144 139.779 95.504 142.936 94.224 145.752C92.9867 148.525 91.28 150.915 89.104 152.92C86.928 154.883 84.4107 156.397 81.552 157.464C78.6933 158.488 75.664 159 72.464 159H56.08ZM65.36 150.04H70.864C73.2107 150.04 75.344 149.741 77.264 149.144C79.184 148.504 80.8267 147.587 82.192 146.392C83.6 145.197 84.6667 143.704 85.392 141.912C86.16 140.077 86.544 137.987 86.544 135.64C86.544 132.568 86.032 130.072 85.008 128.152C84.0267 126.189 82.7893 124.675 81.296 123.608C79.8453 122.541 78.352 121.816 76.816 121.432C75.28 121.005 73.9787 120.792 72.912 120.792H65.36V150.04ZM140.783 155.096C140.271 155.523 139.311 156.099 137.903 156.824C136.538 157.549 134.852 158.189 132.847 158.744C130.842 159.299 128.623 159.555 126.191 159.512C122.479 159.427 119.151 158.765 116.207 157.528C113.306 156.248 110.831 154.52 108.783 152.344C106.778 150.168 105.242 147.672 104.175 144.856C103.108 142.04 102.575 139.032 102.575 135.832C102.575 132.248 103.108 128.963 104.175 125.976C105.284 122.989 106.842 120.408 108.847 118.232C110.895 116.056 113.327 114.371 116.143 113.176C118.959 111.981 122.074 111.384 125.487 111.384C128.644 111.384 131.439 111.811 133.871 112.664C136.303 113.517 138.287 114.435 139.823 115.416L136.175 124.184C135.108 123.373 133.679 122.541 131.887 121.688C130.138 120.792 128.111 120.344 125.807 120.344C124.015 120.344 122.287 120.728 120.623 121.496C119.002 122.221 117.551 123.267 116.271 124.632C115.034 125.997 114.052 127.597 113.327 129.432C112.602 131.224 112.239 133.187 112.239 135.32C112.239 137.581 112.559 139.651 113.199 141.528C113.882 143.405 114.842 145.027 116.079 146.392C117.316 147.715 118.788 148.739 120.495 149.464C122.244 150.189 124.207 150.552 126.383 150.552C128.9 150.552 131.055 150.147 132.847 149.336C134.639 148.525 136.004 147.672 136.943 146.776L140.783 155.096ZM148.608 159V108.504H157.376V136.664L157.312 135.576C158.293 133.827 159.68 132.419 161.472 131.352C163.264 130.243 165.461 129.688 168.064 129.688C170.709 129.688 172.907 130.477 174.656 132.056C176.448 133.592 177.365 135.597 177.408 138.072V159H168.448V141.4C168.405 140.163 168.064 139.181 167.424 138.456C166.827 137.688 165.803 137.304 164.352 137.304C162.987 137.304 161.792 137.752 160.768 138.648C159.744 139.544 158.955 140.76 158.4 142.296C157.845 143.832 157.568 145.603 157.568 147.608V159H148.608ZM198.384 159.768C195.781 159.768 193.413 159.256 191.28 158.232C189.189 157.165 187.525 155.544 186.288 153.368C185.051 151.192 184.432 148.419 184.432 145.048C184.432 141.891 185.072 139.16 186.352 136.856C187.632 134.552 189.317 132.781 191.408 131.544C193.499 130.264 195.717 129.624 198.064 129.624C200.837 129.624 202.928 130.093 204.336 131.032C205.787 131.928 206.981 132.931 207.92 134.04L207.536 135.128L208.368 131.032H216.688V159H207.728V152.92L208.432 154.84C208.347 154.84 208.091 155.096 207.664 155.608C207.237 156.077 206.597 156.653 205.744 157.336C204.933 157.976 203.909 158.531 202.672 159C201.477 159.512 200.048 159.768 198.384 159.768ZM200.944 152.472C202.011 152.472 202.971 152.323 203.824 152.024C204.677 151.683 205.424 151.213 206.064 150.616C206.704 149.976 207.259 149.187 207.728 148.248V141.4C207.387 140.461 206.875 139.672 206.192 139.032C205.509 138.349 204.699 137.837 203.76 137.496C202.821 137.112 201.776 136.92 200.624 136.92C199.344 136.92 198.149 137.261 197.04 137.944C195.973 138.584 195.12 139.48 194.48 140.632C193.84 141.784 193.52 143.107 193.52 144.6C193.52 146.093 193.861 147.437 194.544 148.632C195.227 149.827 196.123 150.765 197.232 151.448C198.384 152.131 199.621 152.472 200.944 152.472ZM228.545 118.744H237.505V130.904H244.289V137.88H237.505V159H228.545V137.88H224.193V130.904H228.545V118.744ZM274.609 159V138.84H269.873V130.904H274.609V121.176C274.609 117.507 275.654 114.52 277.745 112.216C279.878 109.869 282.95 108.696 286.961 108.696C288.155 108.696 289.478 108.888 290.929 109.272C292.422 109.613 293.723 110.189 294.833 111L291.057 117.464C290.63 116.909 290.118 116.547 289.521 116.376C288.966 116.163 288.433 116.056 287.921 116.056C286.641 116.056 285.595 116.483 284.785 117.336C283.974 118.189 283.569 119.555 283.569 121.432V130.904H292.017V138.84H283.569V159H274.609ZM295.682 144.664C295.682 141.805 296.343 139.245 297.666 136.984C299.031 134.723 300.93 132.952 303.362 131.672C305.794 130.349 308.589 129.688 311.746 129.688C314.946 129.688 317.719 130.349 320.066 131.672C322.413 132.952 324.205 134.723 325.442 136.984C326.722 139.245 327.362 141.805 327.362 144.664C327.362 147.523 326.722 150.104 325.442 152.408C324.205 154.669 322.413 156.461 320.066 157.784C317.719 159.107 314.903 159.768 311.618 159.768C308.546 159.768 305.794 159.171 303.362 157.976C300.973 156.781 299.095 155.053 297.73 152.792C296.365 150.531 295.682 147.821 295.682 144.664ZM304.706 144.728C304.706 146.179 305.005 147.501 305.602 148.696C306.199 149.848 307.01 150.765 308.034 151.448C309.058 152.131 310.21 152.472 311.49 152.472C312.898 152.472 314.114 152.131 315.138 151.448C316.162 150.765 316.951 149.848 317.506 148.696C318.061 147.501 318.338 146.179 318.338 144.728C318.338 143.235 318.061 141.912 317.506 140.76C316.951 139.608 316.162 138.691 315.138 138.008C314.114 137.325 312.898 136.984 311.49 136.984C310.21 136.984 309.058 137.325 308.034 138.008C307.01 138.691 306.199 139.608 305.602 140.76C305.005 141.912 304.706 143.235 304.706 144.728ZM342.485 131.032L343.317 138.712L343.125 137.56C343.935 135.896 345.045 134.488 346.453 133.336C347.861 132.141 349.247 131.224 350.613 130.584C352.021 129.944 353.087 129.624 353.813 129.624L353.365 138.584C351.274 138.328 349.482 138.669 347.989 139.608C346.495 140.547 345.343 141.784 344.533 143.32C343.722 144.856 343.317 146.435 343.317 148.056V159H334.421V131.032H342.485ZM56.08 235V187.896H70.16C74.896 187.896 78.928 188.6 82.256 190.008C85.584 191.416 88.2507 193.293 90.256 195.64C92.304 197.987 93.7973 200.611 94.736 203.512C95.6747 206.413 96.144 209.336 96.144 212.28C96.144 215.779 95.504 218.936 94.224 221.752C92.9867 224.525 91.28 226.915 89.104 228.92C86.928 230.883 84.4107 232.397 81.552 233.464C78.6933 234.488 75.664 235 72.464 235H56.08ZM65.36 226.04H70.864C73.2107 226.04 75.344 225.741 77.264 225.144C79.184 224.504 80.8267 223.587 82.192 222.392C83.6 221.197 84.6667 219.704 85.392 217.912C86.16 216.077 86.544 213.987 86.544 211.64C86.544 208.568 86.032 206.072 85.008 204.152C84.0267 202.189 82.7893 200.675 81.296 199.608C79.8453 198.541 78.352 197.816 76.816 197.432C75.28 197.005 73.9787 196.792 72.912 196.792H65.36V226.04ZM117.743 235.768C114.33 235.768 111.428 235.128 109.039 233.848C106.692 232.568 104.9 230.797 103.663 228.536C102.426 226.275 101.807 223.672 101.807 220.728C101.807 217.912 102.532 215.373 103.983 213.112C105.434 210.851 107.375 209.059 109.807 207.736C112.239 206.371 114.948 205.688 117.935 205.688C121.946 205.688 125.231 206.861 127.791 209.208C130.394 211.512 132.079 214.861 132.847 219.256L111.087 226.168L109.103 221.304L124.847 215.992L122.991 216.824C122.65 215.715 122.031 214.755 121.135 213.944C120.282 213.091 118.98 212.664 117.231 212.664C115.908 212.664 114.735 212.984 113.711 213.624C112.73 214.221 111.962 215.096 111.407 216.248C110.895 217.357 110.639 218.68 110.639 220.216C110.639 221.965 110.959 223.437 111.599 224.632C112.239 225.784 113.114 226.659 114.223 227.256C115.332 227.853 116.57 228.152 117.935 228.152C118.916 228.152 119.855 227.981 120.751 227.64C121.69 227.299 122.607 226.851 123.503 226.296L127.471 232.952C125.978 233.805 124.356 234.488 122.607 235C120.9 235.512 119.279 235.768 117.743 235.768ZM148.446 235.576C146.142 235.576 143.987 235.171 141.982 234.36C140.019 233.549 138.355 232.419 136.99 230.968L140.702 226.04C142.067 227.277 143.326 228.173 144.478 228.728C145.673 229.24 146.739 229.496 147.678 229.496C148.403 229.496 149.043 229.432 149.598 229.304C150.195 229.133 150.665 228.899 151.006 228.6C151.347 228.259 151.518 227.832 151.518 227.32C151.518 226.595 151.219 226.019 150.622 225.592C150.067 225.165 149.342 224.824 148.446 224.568C147.55 224.269 146.59 223.971 145.566 223.672C143.006 222.861 141.15 221.688 139.998 220.152C138.889 218.573 138.334 216.867 138.334 215.032C138.334 213.624 138.697 212.216 139.422 210.808C140.19 209.357 141.385 208.163 143.006 207.224C144.67 206.243 146.803 205.752 149.406 205.752C151.753 205.752 153.737 205.987 155.358 206.456C156.979 206.925 158.515 207.693 159.966 208.76L156.574 214.008C155.763 213.368 154.846 212.835 153.822 212.408C152.841 211.939 151.923 211.683 151.07 211.64C150.302 211.597 149.641 211.683 149.086 211.896C148.574 212.109 148.169 212.387 147.87 212.728C147.571 213.069 147.422 213.432 147.422 213.816C147.379 214.627 147.678 215.267 148.318 215.736C149.001 216.205 149.854 216.568 150.878 216.824C151.902 217.08 152.905 217.379 153.886 217.72C155.251 218.147 156.425 218.723 157.406 219.448C158.387 220.173 159.134 221.048 159.646 222.072C160.201 223.053 160.478 224.248 160.478 225.656C160.478 227.363 160.03 228.984 159.134 230.52C158.281 232.013 156.958 233.229 155.166 234.168C153.417 235.107 151.177 235.576 148.446 235.576ZM167.983 235V184.504H176.943V235H167.983ZM184.047 215.992L196.719 235H186.287L178.159 221.112L184.047 215.992ZM174.255 227.256L173.359 218.744L190.255 206.328L195.695 211.128L174.255 227.256ZM205.545 194.744H214.505V206.904H221.289V213.88H214.505V235H205.545V213.88H201.193V206.904H205.545V194.744ZM225.932 220.664C225.932 217.805 226.593 215.245 227.916 212.984C229.281 210.723 231.18 208.952 233.612 207.672C236.044 206.349 238.839 205.688 241.996 205.688C245.196 205.688 247.969 206.349 250.316 207.672C252.663 208.952 254.455 210.723 255.692 212.984C256.972 215.245 257.612 217.805 257.612 220.664C257.612 223.523 256.972 226.104 255.692 228.408C254.455 230.669 252.663 232.461 250.316 233.784C247.969 235.107 245.153 235.768 241.868 235.768C238.796 235.768 236.044 235.171 233.612 233.976C231.223 232.781 229.345 231.053 227.98 228.792C226.615 226.531 225.932 223.821 225.932 220.664ZM234.956 220.728C234.956 222.179 235.255 223.501 235.852 224.696C236.449 225.848 237.26 226.765 238.284 227.448C239.308 228.131 240.46 228.472 241.74 228.472C243.148 228.472 244.364 228.131 245.388 227.448C246.412 226.765 247.201 225.848 247.756 224.696C248.311 223.501 248.588 222.179 248.588 220.728C248.588 219.235 248.311 217.912 247.756 216.76C247.201 215.608 246.412 214.691 245.388 214.008C244.364 213.325 243.148 212.984 241.74 212.984C240.46 212.984 239.308 213.325 238.284 214.008C237.26 214.691 236.449 215.608 235.852 216.76C235.255 217.912 234.956 219.235 234.956 220.728ZM282.207 235.768C280.543 235.768 278.9 235.469 277.279 234.872C275.7 234.232 274.377 233.336 273.311 232.184L273.567 229.56V248.44H264.671V206.392H272.351L273.631 211.832L272.927 209.912C274.377 208.675 275.999 207.651 277.791 206.84C279.583 206.029 281.652 205.624 283.999 205.624C286.601 205.624 288.927 206.243 290.975 207.48C293.023 208.675 294.623 210.424 295.775 212.728C296.969 214.989 297.567 217.72 297.567 220.92C297.567 224.077 296.905 226.765 295.583 228.984C294.26 231.203 292.447 232.888 290.143 234.04C287.839 235.192 285.193 235.768 282.207 235.768ZM280.415 228.728C281.865 228.728 283.188 228.408 284.383 227.768C285.62 227.128 286.601 226.232 287.327 225.08C288.095 223.885 288.479 222.541 288.479 221.048C288.479 219.469 288.137 218.104 287.455 216.952C286.815 215.757 285.919 214.84 284.767 214.2C283.657 213.517 282.42 213.176 281.055 213.176C279.86 213.176 278.793 213.347 277.855 213.688C276.959 213.987 276.148 214.456 275.423 215.096C274.74 215.693 274.143 216.461 273.631 217.4V224.248C273.972 225.144 274.463 225.933 275.103 226.616C275.743 227.299 276.511 227.832 277.407 228.216C278.345 228.557 279.348 228.728 280.415 228.728ZM327.328 186.936C324.299 195.171 321.269 203.384 318.24 211.576C315.211 219.768 312.181 227.981 309.152 236.216H301.088C304.117 227.981 307.147 219.768 310.176 211.576C313.205 203.384 316.235 195.171 319.264 186.936H327.328ZM333.018 235V185.976H333.082L359.257 223.096L355.29 222.2L381.402 185.976H381.53V235H372.25V206.904L372.826 211.704L356.89 234.36H356.762L340.378 211.704L341.978 207.288V235H333.018ZM390.057 220.664C390.057 217.805 390.718 215.245 392.041 212.984C393.406 210.723 395.305 208.952 397.737 207.672C400.169 206.349 402.964 205.688 406.121 205.688C409.321 205.688 412.094 206.349 414.441 207.672C416.788 208.952 418.58 210.723 419.817 212.984C421.097 215.245 421.737 217.805 421.737 220.664C421.737 223.523 421.097 226.104 419.817 228.408C418.58 230.669 416.788 232.461 414.441 233.784C412.094 235.107 409.278 235.768 405.993 235.768C402.921 235.768 400.169 235.171 397.737 233.976C395.348 232.781 393.47 231.053 392.105 228.792C390.74 226.531 390.057 223.821 390.057 220.664ZM399.081 220.728C399.081 222.179 399.38 223.501 399.977 224.696C400.574 225.848 401.385 226.765 402.409 227.448C403.433 228.131 404.585 228.472 405.865 228.472C407.273 228.472 408.489 228.131 409.513 227.448C410.537 226.765 411.326 225.848 411.881 224.696C412.436 223.501 412.713 222.179 412.713 220.728C412.713 219.235 412.436 217.912 411.881 216.76C411.326 215.608 410.537 214.691 409.513 214.008C408.489 213.325 407.273 212.984 405.865 212.984C404.585 212.984 403.433 213.325 402.409 214.008C401.385 214.691 400.574 215.608 399.977 216.76C399.38 217.912 399.081 219.235 399.081 220.728ZM447.164 235.768C444.817 235.768 442.833 235.384 441.212 234.616C439.633 233.805 438.246 232.76 437.052 231.48L437.756 229.56V235H428.796V184.504H437.692V211.832V208.952C438.801 208.013 440.273 207.224 442.108 206.584C443.942 205.944 446.033 205.624 448.38 205.624C450.812 205.624 453.03 206.2 455.036 207.352C457.041 208.504 458.641 210.189 459.836 212.408C461.073 214.584 461.692 217.251 461.692 220.408C461.692 223.565 461.009 226.296 459.644 228.6C458.321 230.904 456.55 232.675 454.332 233.912C452.113 235.149 449.724 235.768 447.164 235.768ZM445.18 228.216C446.502 228.216 447.718 227.875 448.828 227.192C449.98 226.509 450.897 225.571 451.58 224.376C452.262 223.181 452.604 221.837 452.604 220.344C452.604 218.851 452.262 217.528 451.58 216.376C450.897 215.224 449.98 214.328 448.828 213.688C447.718 213.005 446.502 212.664 445.18 212.664C444.028 212.664 442.94 212.856 441.916 213.24C440.934 213.581 440.081 214.093 439.356 214.776C438.673 215.416 438.14 216.205 437.756 217.144V223.992C438.268 224.931 438.865 225.72 439.548 226.36C440.273 226.957 441.105 227.427 442.044 227.768C442.982 228.067 444.028 228.216 445.18 228.216ZM468.733 207.032H477.693V235H468.733V207.032ZM468.541 197.112C468.541 195.789 469.053 194.701 470.077 193.848C471.144 192.995 472.274 192.568 473.469 192.568C474.664 192.568 475.752 192.995 476.733 193.848C477.757 194.701 478.269 195.789 478.269 197.112C478.269 198.435 477.757 199.523 476.733 200.376C475.752 201.187 474.664 201.592 473.469 201.592C472.274 201.592 471.144 201.187 470.077 200.376C469.053 199.523 468.541 198.435 468.541 197.112ZM486.921 184.504H495.881V235H486.921V184.504ZM518.868 235.768C515.455 235.768 512.553 235.128 510.164 233.848C507.817 232.568 506.025 230.797 504.788 228.536C503.551 226.275 502.932 223.672 502.932 220.728C502.932 217.912 503.657 215.373 505.108 213.112C506.559 210.851 508.5 209.059 510.932 207.736C513.364 206.371 516.073 205.688 519.06 205.688C523.071 205.688 526.356 206.861 528.916 209.208C531.519 211.512 533.204 214.861 533.972 219.256L512.212 226.168L510.228 221.304L525.972 215.992L524.116 216.824C523.775 215.715 523.156 214.755 522.26 213.944C521.407 213.091 520.105 212.664 518.356 212.664C517.033 212.664 515.86 212.984 514.836 213.624C513.855 214.221 513.087 215.096 512.532 216.248C512.02 217.357 511.764 218.68 511.764 220.216C511.764 221.965 512.084 223.437 512.724 224.632C513.364 225.784 514.239 226.659 515.348 227.256C516.457 227.853 517.695 228.152 519.06 228.152C520.041 228.152 520.98 227.981 521.876 227.64C522.815 227.299 523.732 226.851 524.628 226.296L528.596 232.952C527.103 233.805 525.481 234.488 523.732 235C522.025 235.512 520.404 235.768 518.868 235.768Z" fill="white" fill-opacity="0.85"/>
<defs>
<linearGradient id="paint0_linear_8_1155" x1="1757.92" y1="1334.34" x2="473" y2="-28.2399" gradientUnits="userSpaceOnUse">
<stop stop-color="#00F4F2"/>
<stop offset="0.527083" stop-color="#FF2A54"/>
</linearGradient>
</defs>
</svg>
